<?xml version="1.0" standalone="no"?>
<!DOCTYPE svg PUBLIC "-//W3C//DTD SVG 20010904//EN"
 "http://www.w3.org/TR/2001/REC-SVG-20010904/DTD/svg10.dtd">
<svg version="1.0" xmlns="http://www.w3.org/2000/svg"
 width="512.000000pt" height="512.000000pt" viewBox="0 0 512.000000 512.000000"
 preserveAspectRatio="xMidYMid meet">

<g transform="translate(0.000000,512.000000) scale(0.100000,-0.100000)"
fill="#000000" stroke="none">
<path d="M1165 5057 c-24 -20 -28 -34 -41 -142 -19 -154 -22 -165 -38 -165 -8
0 -51 -16 -97 -35 -45 -19 -87 -31 -93 -28 -6 4 -55 42 -109 85 -99 78 -120
87 -160 67 -41 -21 -317 -303 -327 -335 -15 -44 -1 -72 86 -181 40 -51 74 -96
74 -101 0 -5 -17 -51 -38 -103 l-38 -94 -129 -17 c-144 -18 -170 -28 -185 -71
-13 -39 -13 -415 0 -453 15 -44 40 -54 178 -71 70 -8 130 -18 133 -21 8 -8 79
-186 79 -196 0 -4 -38 -54 -85 -112 -58 -72 -85 -114 -85 -132 0 -20 38 -64
169 -196 146 -146 173 -169 200 -169 23 0 58 20 142 85 l111 84 96 -38 c53
-22 98 -41 100 -43 2 -2 10 -54 18 -117 17 -139 19 -148 38 -173 13 -19 29
-20 222 -25 l208 -5 39 -69 c32 -56 36 -71 25 -81 -7 -7 -340 -287 -739 -623
-770 -649 -781 -659 -834 -790 -84 -207 -30 -451 133 -604 208 -195 537 -195
741 0 27 26 316 364 642 752 325 388 597 711 604 718 9 10 25 6 83 -25 l72
-38 0 -186 c0 -196 8 -242 43 -261 12 -6 80 -18 151 -27 l130 -16 27 -70 c15
-39 33 -84 40 -102 12 -31 12 -33 -62 -125 -89 -110 -103 -133 -95 -161 7 -30
338 -357 360 -357 26 0 53 17 152 97 50 40 95 73 100 73 6 0 52 -17 104 -39
l95 -38 16 -129 c9 -72 21 -139 27 -151 21 -39 56 -44 286 -41 l218 3 27 31
c24 27 30 45 40 130 21 173 9 154 122 198 l99 39 56 -44 c178 -140 179 -141
219 -116 11 7 89 82 173 168 190 194 187 180 67 329 -47 58 -83 110 -81 115 3
6 21 48 40 95 19 47 40 88 48 92 7 4 68 13 136 21 103 12 128 19 148 38 l24
22 0 233 c0 211 -2 234 -19 255 -16 20 -38 26 -161 43 l-143 21 -12 40 c-7 22
-24 66 -38 98 l-27 58 85 106 c114 141 114 139 -11 264 l-97 97 31 74 c46 112
80 231 103 368 18 109 21 151 16 320 -6 212 -20 299 -79 485 -41 130 -140 325
-225 445 -87 122 -281 316 -403 403 -181 128 -413 229 -643 279 -139 30 -514
33 -647 5 -108 -23 -267 -71 -338 -103 l-56 -25 -101 101 c-129 128 -125 128
-268 14 l-107 -86 -83 35 c-45 19 -89 37 -98 40 -17 6 -20 18 -40 181 -18 153
-5 146 -288 146 -224 0 -231 -1 -256 -23z m398 -159 c3 -13 11 -68 17 -123 7
-55 18 -110 26 -121 9 -15 35 -27 84 -39 39 -10 110 -37 157 -61 47 -24 93
-44 103 -44 9 0 66 39 125 86 l108 85 43 -42 c24 -24 44 -46 44 -50 0 -3 -33
-28 -72 -54 -101 -67 -171 -121 -254 -198 l-71 -66 -34 25 c-52 39 -136 79
-219 106 -63 19 -95 23 -200 22 -107 0 -136 -4 -205 -27 -246 -81 -432 -286
-486 -534 -18 -81 -15 -235 5 -313 24 -91 86 -215 143 -283 119 -143 297 -239
470 -254 l72 -6 6 -46 c22 -171 46 -283 84 -393 l20 -58 -118 0 -118 0 -6 48
c-4 26 -9 82 -13 126 -9 98 -24 117 -116 141 -37 9 -102 35 -144 56 -42 21
-88 39 -102 39 -18 0 -61 -27 -131 -82 l-103 -81 -99 99 -98 99 84 108 c47 60
85 114 85 121 0 7 -18 52 -39 98 -22 47 -49 117 -61 156 -12 38 -30 78 -40 87
-12 11 -60 21 -144 32 l-127 17 3 140 3 140 130 17 c137 18 149 25 161 79 13
60 40 130 75 202 22 43 39 84 39 92 0 8 -38 63 -85 122 l-86 108 93 93 c51 51
95 93 98 93 3 0 54 -36 114 -80 59 -44 113 -80 118 -80 6 0 50 20 97 44 48 24
116 54 153 66 36 11 73 29 81 38 12 13 47 210 47 263 0 5 62 9 139 9 136 0
139 -1 144 -22z m1809 -277 c385 -66 732 -279 971 -596 85 -113 197 -336 236
-473 49 -166 64 -300 58 -497 -10 -307 -86 -545 -254 -800 -88 -132 -282 -328
-412 -414 -178 -118 -376 -198 -586 -237 -139 -26 -411 -26 -550 0 -552 103
-1007 500 -1180 1029 -55 171 -70 276 -69 492 0 165 4 205 26 305 69 312 212
566 440 786 231 222 508 360 823 409 128 21 364 18 497 -4z m-1859 -717 c18
-9 42 -25 53 -36 l21 -19 -38 -90 c-22 -49 -48 -121 -58 -159 -25 -87 -26 -90
-59 -90 -84 0 -168 58 -198 136 -36 94 6 206 96 252 53 27 136 29 183 6z
m3085 -1816 c-111 -138 -107 -122 -54 -241 24 -56 52 -128 61 -161 24 -84 33
-90 160 -105 173 -20 155 -1 155 -156 0 -74 -4 -136 -8 -139 -5 -3 -64 -12
-133 -22 -84 -11 -129 -21 -141 -33 -9 -9 -24 -45 -32 -81 -9 -36 -37 -106
-61 -156 -30 -60 -43 -98 -38 -110 3 -11 36 -57 72 -103 36 -47 72 -94 80
-104 12 -17 6 -27 -80 -113 -51 -52 -98 -94 -104 -94 -5 0 -55 36 -110 80 -55
44 -109 80 -121 80 -12 0 -54 -15 -95 -34 -41 -18 -111 -46 -157 -61 -100 -32
-105 -40 -121 -180 -18 -150 -1 -135 -159 -135 l-138 0 -16 129 c-9 71 -21
138 -27 149 -7 13 -33 25 -81 37 -39 9 -110 37 -158 61 -48 24 -96 44 -107 44
-11 0 -67 -38 -125 -85 l-105 -83 -97 96 c-54 53 -98 99 -98 102 0 3 36 50 80
105 55 70 79 108 80 128 0 15 -15 58 -34 95 -18 37 -45 104 -60 149 -15 45
-33 86 -39 91 -7 6 -72 18 -144 27 l-133 18 0 123 0 123 58 -20 c110 -38 221
-62 393 -84 l46 -6 6 -72 c18 -221 169 -442 377 -551 390 -204 867 -5 1007
419 22 68 26 99 27 205 1 105 -3 137 -22 200 -27 83 -67 167 -106 219 l-25 34
66 71 c77 83 131 153 198 254 l49 73 44 -45 45 -45 -75 -93z m-2759 -92 c40
-47 110 -117 157 -157 46 -40 82 -79 80 -86 -8 -20 -1185 -1415 -1229 -1457
-192 -178 -499 -117 -614 123 -35 74 -44 205 -18 283 36 113 40 117 807 763
402 338 734 615 737 615 4 0 40 -38 80 -84z m2067 -483 c52 -121 -35 -268
-165 -281 -99 -9 -196 56 -221 148 -20 75 -16 80 95 115 55 18 129 46 165 62
l65 30 24 -21 c13 -12 30 -35 37 -53z"/>
<path d="M3610 3120 l0 -310 45 0 45 0 0 58 c0 54 3 60 38 95 l39 38 63 -96
63 -95 54 0 c30 0 52 3 49 8 -2 4 -41 61 -85 127 -45 65 -81 122 -81 125 0 4
34 44 76 91 l77 84 -53 3 -53 3 -94 -93 -93 -93 0 183 0 182 -45 0 -45 0 0
-310z"/>
<path d="M2210 3345 l0 -45 85 0 85 0 0 -245 0 -245 50 0 50 0 0 245 0 245 90
0 90 0 0 45 0 45 -225 0 -225 0 0 -45z"/>
<path d="M3253 3241 c-78 -36 -108 -131 -59 -184 27 -29 68 -52 111 -61 17 -4
45 -15 63 -26 36 -22 43 -58 16 -81 -26 -21 -98 -14 -149 14 l-45 25 -20 -28
c-11 -15 -20 -32 -20 -37 0 -19 95 -55 161 -60 115 -10 189 42 189 132 0 20
-5 45 -10 56 -12 21 -84 61 -157 85 -58 20 -73 31 -73 55 0 45 86 63 158 34
34 -15 38 -15 49 1 35 48 -10 84 -112 91 -45 3 -70 -1 -102 -16z"/>
<path d="M2765 3224 c-22 -8 -48 -21 -58 -29 -18 -13 -18 -15 -2 -39 l17 -25
40 20 c50 26 127 28 162 5 20 -12 26 -25 26 -51 l0 -35 -82 0 c-152 0 -208
-32 -208 -117 0 -63 16 -92 65 -121 55 -31 164 -28 213 6 l32 23 0 -25 c0 -23
4 -26 35 -26 l35 0 0 158 c0 173 -8 206 -63 246 -36 27 -153 32 -212 10z m195
-249 c0 -70 -81 -112 -158 -83 -34 13 -37 17 -37 53 0 51 25 65 123 65 l72 0
0 -35z"/>
<path d="M1320 1435 l-54 -55 54 -55 54 -55 58 57 58 57 -52 53 c-29 29 -55
53 -58 53 -3 0 -30 -25 -60 -55z"/>
<path d="M950 1065 l-54 -55 54 -55 54 -55 58 57 58 57 -52 53 c-29 29 -55 53
-58 53 -3 0 -30 -25 -60 -55z"/>
<path d="M587 692 l-57 -58 55 -54 55 -55 58 58 57 57 -55 55 -55 55 -58 -58z"/>
</g>
</svg>
